#!OML:ASF H:\Terrain\Patient Classification 1\Walking\liu\liu.ASF
:FULLY-SPECIFIED
:DEGREES
186
root 8.62332 16.827 -6.82847 4.60689 5.93671 -3.00416
lowerback -6.1657 -1.46641 -1.30261
upperback 0.0307425 -1.96488 2.86034
thorax 3.63644 -1.02672 3.51223
lowerneck -19.4435 -6.37166 -13.7029
upperneck 18.9521 -8.26254 14.7271
head 10.5207 -3.203 6.35313
rclavicle -1.32316e-014 -1.43125e-014
rhumerus -41.245 16.3453 -86.3239
rradius 40.2934
rwrist -20.3212
rhand -29.7352 -24.9502
rfingers 7.12502
rthumb -3.06171 -54.9079
lclavicle -1.32316e-014 -1.43125e-014
lhumerus -38.6822 -8.75309 91.0436
lradius 22.9673
lwrist -2.51066
lhand -9.66926 -23.8914
lfingers 7.12502
lthumb 16.3021 5.44339
rfemur -17.7487 -0.413233 28.8387
rtibia 27.3151
rfoot -15 -0.945503
rtoes -4.84394
lfemur -17.3175 17.1011 -12.4443
ltibia 65.2828
lfoot -7.38414 11.874
ltoes 2.08711
187
root 8.61718 16.8209 -6.71622 4.67343 5.49383 -3.12222
lowerback -6.11678 -1.30447 -1.19387
upperback 0.0959247 -1.75771 2.85949
thorax 3.65809 -0.922582 3.47009
lowerneck -19.7725 -6.34298 -13.5367
upperneck 19.125 -8.22861 14.6382
head 10.6272 -3.17042 6.30106
rclavicle -1.71824e-014 5.24792e-014
rhumerus -40.6276 16.5494 -86.1372
rradius 40.7009
rwrist -20.4193
rhand -29.9096 -25.9207
rfingers 7.12502
rthumb -3.23012 -55.876
lclavicle -1.71824e-014 5.24792e-014
lhumerus -39.0087 -8.97979 91.0042
lradius 22.9567
lwrist -1.16926
lhand -6.70978 -22.1074
lfingers 7.12502
lthumb 19.1499 6.96986
rfemur -17.3575 -0.208656 29.0315
rtibia 27.3173
rfoot -15.5548 -0.793663
rtoes -6.95279
lfemur -18.8091 17.5608 -12.7169
ltibia 65.5764
lfoot -7.87275 11.6587
ltoes 1.8233
188
root 8.61137 16.8191 -6.6049 4.75759 5.10255 -3.00937
lowerback -5.9256 -1.17878 -1.32657
upperback -0.0681845 -1.57468 2.78498
thorax 3.36899 -0.827988 3.48876
lowerneck -19.4927 -6.23926 -13.5374
upperneck 19.1176 -8.16205 14.8228
head 10.5704 -3.13137 6.38481
rclavicle -5.09386e-016 1.59028e-015
rhumerus -40.4187 16.8823 -86.189
rradius 40.8496
rwrist -20.4494
rhand -30.0128 -26.0213
rfingers 7.12502
rthumb -3.32985 -55.975
lclavicle -5.09386e-016 1.59028e-015
lhumerus -39.7857 -9.29321 91.124
lradius 22.8927
lwrist 0.560806
lhand -6.36032 -21.4603
lfingers 7.12502
lthumb 19.486 7.58329
rfemur -16.9506 -0.0275143 28.9458
rtibia 27.2324
rfoot -15.9565 -0.584501
rtoes -7.37507
lfemur -20.222 17.6925 -13.3208
ltibia 65.7743
lfoot -9.67661 11.2325
ltoes -3.16486
189
root 8.60581 16.8161 -6.49906 4.76401 4.84979 -3.07627
lowerback -5.7608 -1.09851 -1.23633
upperback -0.0844014 -1.4717 2.73941
thorax 3.2486 -0.773295 3.40197
lowerneck -19.4472 -6.23439 -13.6395
upperneck 19.1481 -8.19016 15.0481
head 10.5945 -3.12968 6.48659
rclavicle -2.24999e-014 1.33186e-014
rhumerus -39.9513 17.1799 -86.1904
rradius 40.88
rwrist -20.4384
rhand -29.9401 -25.206
rfingers 7.12502
rthumb -3.2596 -55.1608
lclavicle -2.24999e-014 1.33186e-014
lhumerus -40.4713 -8.98967 90.837
lradius 23.2101
lwrist 1.20189
lhand -7.10222 -21.5295
lfingers 7.12502
lthumb 18.7725 7.58467
rfemur -16.5332 0.213732 29.0565
rtibia 27.1994
rfoot -16.3243 -0.515788
rtoes -7.16973
lfemur -21.6404 17.7044 -13.6862
ltibia 65.9364
lfoot -10.8686 10.9722
ltoes -6.55571
190
root 8.59746 16.8064 -6.39574 4.76787 4.6061 -3.37755
lowerback -5.74189 -0.874635 -0.84166
upperback 0.0376298 -1.1999 2.69595
thorax 3.33593 -0.633133 3.15709
lowerneck -19.3576 -6.35242 -13.7565
upperneck 19.0323 -8.36411 15.2231
head 10.5809 -3.20385 6.54103
rclavicle 1.5207e-014 -1.11319e-014
rhumerus -39.2695 16.9065 -85.9576
rradius 41.0142
rwrist -20.3722
rhand -29.7822 -24.3919
rfingers 7.12502
rthumb -3.10709 -54.349
lclavicle 1.5207e-014 -1.11319e-014
lhumerus -40.8297 -8.90308 90.4819
lradius 23.5548
lwrist 1.27275
lhand -10.413 -23.8451
lfingers 7.12502
lthumb 15.5859 5.54688
rfemur -16.1973 0.543384 29.4734
rtibia 27.2678
rfoot -16.8326 -0.67273
rtoes -7.24069
lfemur -23.1555 17.8402 -13.7462
ltibia 66.0016
lfoot -11.568 10.8322
ltoes -6.96714
191
root 8.5913 16.7889 -6.29211 4.84087 4.37246 -3.44453
lowerback -5.65972 -0.648309 -0.715663
upperback -0.0260727 -0.901743 2.61649
thorax 3.20186 -0.479973 3.02978
lowerneck -18.9049 -6.39092 -13.7581
upperneck 18.8503 -8.43879 15.1636
head 10.439 -3.264 6.5004
rclavicle -6.85807e-015 1.76918e-014
rhumerus -39.1036 16.7301 -85.7844
rradius 41.4297
rwrist -20.4288
rhand -29.8059 -23.7759
rfingers 7.12502
rthumb -3.13003 -53.7327
lclavicle -6.85807e-015 1.76918e-014
lhumerus -41.3001 -8.90165 90.2545
lradius 23.5633
lwrist 1.2908
lhand -16.5135 -28.9097
lfingers 7.12502
lthumb 9.70477 0.846671
rfemur -15.9162 0.791647 29.6399
rtibia 27.3891
rfoot -17.4615 -0.820193
rtoes -7.31598
lfemur -24.7344 17.9354 -14.1061
ltibia 65.9143
lfoot -11.9047 10.9108
ltoes -6.88485
192
root 8.59302 16.7686 -6.18114 4.91981 4.02377 -3.0403
lowerback -5.57823 -0.572495 -1.18252
upperback -0.0489406 -0.766596 2.52271
thorax 3.12944 -0.418289 3.20806
lowerneck -18.6393 -6.30339 -13.7834
upperneck 18.6659 -8.32911 15.2095
head 10.3077 -3.22277 6.53455
rclavicle -1.29831e-014 -1.78906e-015
rhumerus -38.9202 17.1132 -85.6346
rradius 41.9466
rwrist -20.5827
rhand -29.9966 -23.497
rfingers 7.12502
rthumb -3.31415 -53.451
lclavicle -1.29831e-014 -1.78906e-015
lhumerus -41.7458 -8.36556 89.9185
lradius 23.5384
lwrist 1.267
lhand -20.116 -32.1493
lfingers 7.12502
lthumb 6.2278 -2.26088
rfemur -15.6292 0.548271 29.2652
rtibia 27.5428
rfoot -17.8523 -0.600573
rtoes -8.64623
lfemur -26.095 17.9314 -15.0177
ltibia 65.5842
lfoot -12.0989 10.8828
ltoes -4.5469
193
root 8.59518 16.7503 -6.06835 4.90947 3.6235 -2.75596
lowerback -5.4794 -0.507996 -1.56763
upperback 0.0594051 -0.656164 2.47671
thorax 3.18271 -0.370885 3.38771
lowerneck -18.5446 -6.20678 -13.9653
upperneck 18.3569 -8.21052 15.6099
head 10.1902 -3.14628 6.72748
rclavicle -1.28589e-014 1.59028e-015
rhumerus -38.3419 17.4076 -85.4135
rradius 42.2708
rwrist -20.6619
rhand -30.0391 -23.7132
rfingers 7.12502
rthumb -3.35518 -53.6666
lclavicle -1.28589e-014 1.59028e-015
lhumerus -42.0468 -7.87957 89.5975
lradius 23.6033
lwrist 1.45464
lhand -20.5647 -32.4449
lfingers 7.12502
lthumb 5.79459 -2.54418
rfemur -15.2531 0.275556 29.0274
rtibia 27.7086
rfoot -18.2443 -0.371759
rtoes -10.6218
lfemur -27.2958 17.9286 -15.734
ltibia 65.0864
lfoot -12.7112 10.4554
ltoes 1.42476
194
root 8.59726 16.7418 -5.95739 4.91253 3.29222 -2.94027
lowerback -5.40901 -0.345421 -1.32363
upperback 0.10607 -0.45544 2.47253
thorax 3.17498 -0.26729 3.26197
lowerneck -18.6387 -6.26515 -14.1163
upperneck 18.4228 -8.27907 15.7495
head 10.258 -3.1702 6.79903
rclavicle -1.17034e-014 1.09332e-014
rhumerus -37.8838 17.3276 -85.2089
rradius 42.5143
rwrist -20.7254
rhand -29.945 -23.667
rfingers 7.12502
rthumb -3.26435 -53.6217
lclavicle -1.17034e-014 1.09332e-014
lhumerus -42.4356 -8.38259 89.7659
lradius 23.6489
lwrist 2.61963
lhand -16.8864 -29.4811
lfingers 7.12502
lthumb 9.34497 0.291722
rfemur -14.7852 0.597238 29.2594
rtibia 27.7905
rfoot -18.855 -0.361676
rtoes -10.573
lfemur -28.5821 17.8421 -15.9254
ltibia 64.5541
lfoot -11.6271 10.803
ltoes -2.68736
195
root 8.60336 16.742 -5.84201 5.02644 2.87615 -3.18127
lowerback -5.51201 -0.17412 -0.976486
upperback 0.130709 -0.250451 2.49967
thorax 3.24305 -0.160681 3.11091
lowerneck -18.9516 -6.37223 -14.0739
upperneck 18.7413 -8.36555 15.4387
head 10.4265 -3.22395 6.66931
rclavicle 8.12532e-015 6.36111e-015
rhumerus -37.5814 17.4111 -84.9915
rradius 42.8828
rwrist -20.9761
rhand -29.9504 -23.6541
rfingers 7.12502
rthumb -3.26955 -53.6088
lclavicle 8.12532e-015 6.36111e-015
lhumerus -42.8105 -8.96497 90.0399
lradius 23.7133
lwrist 3.83004
lhand -9.60334 -23.6895
lfingers 7.12502
lthumb 16.3656 5.64008
rfemur -14.4189 0.983426 29.5058
rtibia 27.7254
rfoot -19.3647 -0.23292
rtoes -9.59747
lfemur -29.8422 17.7284 -16.1029
ltibia 63.9194
lfoot -12.0062 11.1718
ltoes -0.660543
196
root 8.60644 16.7313 -5.72735 5.09342 2.5415 -3.35353
lowerback -5.5496 -0.0648516 -0.832098
upperback 0.185249 -0.116931 2.55347
thorax 3.31217 -0.0934281 3.09672
lowerneck -19.1232 -6.37099 -13.8568
upperneck 18.819 -8.3396 15.1313
head 10.455 -3.22047 6.51922
rclavicle 4.11236e-015 7.95139e-015
rhumerus -37.2334 17.696 -84.8236
rradius 43.3007
rwrist -21.4264
rhand -30.2682 -24.1567
rfingers 7.12502
rthumb -3.57645 -54.1064
lclavicle 4.11236e-015 7.95139e-015
lhumerus -42.9248 -8.14452 89.4534
lradius 23.5983
lwrist 2.97945
lhand -5.27102 -21.0419
lfingers 7.12502
lthumb 20.533 7.89222
rfemur -14.0905 1.1232 29.7313
rtibia 27.6182
rfoot -19.4005 -0.317259
rtoes -9.56037
lfemur -31.0162 17.6282 -16.2801
ltibia 63.1601
lfoot -13.0399 11.0024
ltoes -2.79028
197
root 8.60229 16.7226 -5.62049 5.13219 2.30673 -3.36963
lowerback -5.30372 0.0221779 -0.936568
upperback 0.122485 0.00769889 2.56525
thorax 3.1016 -0.0302737 3.17629
lowerneck -19.1563 -6.33571 -13.6402
upperneck 18.9605 -8.31456 14.9198
head 10.4859 -3.2128 6.40979
rclavicle -4.13721e-015 -2.18663e-015
rhumerus -37.0839 17.9021 -84.772
rradius 43.719
rwrist -21.7704
rhand -30.6982 -24.3371
rfingers 7.12502
rthumb -3.99171 -54.2794
lclavicle -4.13721e-015 -2.18663e-015
lhumerus -43.2028 -6.67006 88.5019
lradius 23.4177
lwrist 1.30777
lhand -6.52981 -22.2259
lfingers 7.12502
lthumb 19.323 6.83407
rfemur -13.7023 1.52422 29.8196
rtibia 27.5737
rfoot -19.4923 -0.715299
rtoes -9.19246
lfemur -32.1635 17.3889 -16.541
ltibia 62.1681
lfoot -13.2711 11.1444
ltoes -2.46321
198
root 8.59837 16.7181 -5.51674 5.25549 2.05538 -3.31324
lowerback -5.06377 0.10419 -1.08302
upperback -0.00720444 0.129423 2.54737
thorax 2.82504 0.0328443 3.24716
lowerneck -19.0832 -6.29432 -13.5958
upperneck 19.1089 -8.27288 14.8298
head 10.5111 -3.2019 6.38078
rclavicle 8.93289e-015 5.96354e-015
rhumerus -37.0272 17.9989 -84.7261
rradius 44.1803
rwrist -21.9917
rhand -30.8025 -25.0033
rfingers 7.12502
rthumb -4.09239 -54.9438
lclavicle 8.93289e-015 5.96354e-015
lhumerus -43.7335 -6.49951 88.4591
lradius 23.3221
lwrist 2.01094
lhand -10.4165 -23.6244
lfingers 7.12502
lthumb 15.5826 5.76785
rfemur -13.3255 2.10627 29.8131
rtibia 27.5205
rfoot -20.0177 -1.00834
rtoes -8.90944
lfemur -33.2787 17.1333 -16.8706
ltibia 60.8925
lfoot -13.3784 11.2376
ltoes -0.820924
199
root 8.60226 16.7147 -5.4046 5.38956 1.93438 -3.37939
lowerback -5.10971 0.183798 -0.962749
upperback -0.0310652 0.230067 2.50407
thorax 2.82026 0.08531 3.14186
lowerneck -18.8166 -6.30597 -13.8183
upperneck 18.927 -8.31257 15.1408
head 10.4294 -3.21596 6.52682
rclavicle 7.64079e-015 -3.57812e-015
rhumerus -36.7818 17.871 -84.6285
rradius 44.6077
rwrist -22.2304
rhand -30.7073 -26.0315
rfingers 7.12502
rthumb -4.00052 -55.9737
lclavicle 7.64079e-015 -3.57812e-015
lhumerus -43.9745 -6.84937 88.596
lradius 23.1158
lwrist 3.28937
lhand -12.2798 -24.1767
lfingers 7.12502
lthumb 13.7874 5.34641
rfemur -12.9642 2.19778 29.9301
rtibia 27.4204
rfoot -20.4989 -1.28693
rtoes -10.6923
lfemur -34.2612 16.8284 -17.0897
ltibia 59.4139
lfoot -14.598 10.8296
ltoes -2.83454
